<mxfile host="Electron" agent="Mozilla/5.0 (Windows NT 10.0; Win64; x64) AppleWebKit/537.36 (KHTML, like Gecko) draw.io/28.1.2 Chrome/138.0.7204.243 Electron/37.4.0 Safari/537.36" version="28.1.2">
  <diagram name="Page-1" id="ankbHl6rWVeB-BNHFoFx">
    <mxGraphModel dx="2630" dy="1369" grid="1" gridSize="10" guides="1" tooltips="1" connect="1" arrows="1" fold="1" page="0" pageScale="1" pageWidth="827" pageHeight="1169" math="0" shadow="0">
      <root>
        <mxCell id="0" />
        <mxCell id="1" parent="0" />
        <mxCell id="I36MxHCAxnk4FtEMSTyt-2" value="" style="group" vertex="1" connectable="0" parent="1">
          <mxGeometry x="-680" y="-210" width="1420" height="860" as="geometry" />
        </mxCell>
        <mxCell id="HE1txntKKnnB9kRg70EI-3" style="edgeStyle=orthogonalEdgeStyle;rounded=0;orthogonalLoop=1;jettySize=auto;html=1;exitX=1;exitY=0;exitDx=0;exitDy=0;entryX=0;entryY=0.5;entryDx=0;entryDy=0;labelBackgroundColor=none;strokeColor=#E07A5F;fontColor=default;" parent="I36MxHCAxnk4FtEMSTyt-2" source="CGOxmBdp1kWUepC8ob1Y-1" target="HE1txntKKnnB9kRg70EI-2" edge="1">
          <mxGeometry relative="1" as="geometry">
            <Array as="points">
              <mxPoint x="730" y="240" />
              <mxPoint x="730" y="120" />
            </Array>
          </mxGeometry>
        </mxCell>
        <mxCell id="CGOxmBdp1kWUepC8ob1Y-1" value="User" style="swimlane;fontStyle=0;childLayout=stackLayout;horizontal=1;startSize=30;horizontalStack=0;resizeParent=1;resizeParentMax=0;resizeLast=0;collapsible=1;marginBottom=0;whiteSpace=wrap;html=1;labelBackgroundColor=none;fillColor=#F2CC8F;strokeColor=#E07A5F;fontColor=#393C56;" parent="I36MxHCAxnk4FtEMSTyt-2" vertex="1">
          <mxGeometry x="560" y="240" width="140" height="210" as="geometry" />
        </mxCell>
        <mxCell id="CGOxmBdp1kWUepC8ob1Y-2" value="&lt;u&gt;id_user&lt;/u&gt;" style="text;strokeColor=none;fillColor=none;align=left;verticalAlign=middle;spacingLeft=4;spacingRight=4;overflow=hidden;points=[[0,0.5],[1,0.5]];portConstraint=eastwest;rotatable=0;whiteSpace=wrap;html=1;labelBackgroundColor=none;fontColor=#393C56;" parent="CGOxmBdp1kWUepC8ob1Y-1" vertex="1">
          <mxGeometry y="30" width="140" height="30" as="geometry" />
        </mxCell>
        <mxCell id="CGOxmBdp1kWUepC8ob1Y-3" value="nom" style="text;strokeColor=none;fillColor=none;align=left;verticalAlign=middle;spacingLeft=4;spacingRight=4;overflow=hidden;points=[[0,0.5],[1,0.5]];portConstraint=eastwest;rotatable=0;whiteSpace=wrap;html=1;labelBackgroundColor=none;fontColor=#393C56;" parent="CGOxmBdp1kWUepC8ob1Y-1" vertex="1">
          <mxGeometry y="60" width="140" height="30" as="geometry" />
        </mxCell>
        <mxCell id="CGOxmBdp1kWUepC8ob1Y-4" value="prenom" style="text;strokeColor=none;fillColor=none;align=left;verticalAlign=middle;spacingLeft=4;spacingRight=4;overflow=hidden;points=[[0,0.5],[1,0.5]];portConstraint=eastwest;rotatable=0;whiteSpace=wrap;html=1;labelBackgroundColor=none;fontColor=#393C56;" parent="CGOxmBdp1kWUepC8ob1Y-1" vertex="1">
          <mxGeometry y="90" width="140" height="30" as="geometry" />
        </mxCell>
        <mxCell id="CGOxmBdp1kWUepC8ob1Y-5" value="email" style="text;strokeColor=none;fillColor=none;align=left;verticalAlign=middle;spacingLeft=4;spacingRight=4;overflow=hidden;points=[[0,0.5],[1,0.5]];portConstraint=eastwest;rotatable=0;whiteSpace=wrap;html=1;labelBackgroundColor=none;fontColor=#393C56;" parent="CGOxmBdp1kWUepC8ob1Y-1" vertex="1">
          <mxGeometry y="120" width="140" height="30" as="geometry" />
        </mxCell>
        <mxCell id="CGOxmBdp1kWUepC8ob1Y-6" value="mdp" style="text;strokeColor=none;fillColor=none;align=left;verticalAlign=middle;spacingLeft=4;spacingRight=4;overflow=hidden;points=[[0,0.5],[1,0.5]];portConstraint=eastwest;rotatable=0;whiteSpace=wrap;html=1;labelBackgroundColor=none;fontColor=#393C56;" parent="CGOxmBdp1kWUepC8ob1Y-1" vertex="1">
          <mxGeometry y="150" width="140" height="30" as="geometry" />
        </mxCell>
        <mxCell id="CGOxmBdp1kWUepC8ob1Y-7" value="est_valide" style="text;strokeColor=none;fillColor=none;align=left;verticalAlign=middle;spacingLeft=4;spacingRight=4;overflow=hidden;points=[[0,0.5],[1,0.5]];portConstraint=eastwest;rotatable=0;whiteSpace=wrap;html=1;labelBackgroundColor=none;fontColor=#393C56;" parent="CGOxmBdp1kWUepC8ob1Y-1" vertex="1">
          <mxGeometry y="180" width="140" height="30" as="geometry" />
        </mxCell>
        <mxCell id="CGOxmBdp1kWUepC8ob1Y-9" value="Alumni" style="swimlane;fontStyle=0;childLayout=stackLayout;horizontal=1;startSize=30;horizontalStack=0;resizeParent=1;resizeParentMax=0;resizeLast=0;collapsible=1;marginBottom=0;whiteSpace=wrap;html=1;labelBackgroundColor=none;fillColor=#F2CC8F;strokeColor=#E07A5F;fontColor=#393C56;" parent="I36MxHCAxnk4FtEMSTyt-2" vertex="1">
          <mxGeometry x="570" y="620" width="140" height="180" as="geometry" />
        </mxCell>
        <mxCell id="CGOxmBdp1kWUepC8ob1Y-10" value="&lt;u&gt;ref_user&lt;/u&gt;" style="text;strokeColor=none;fillColor=none;align=left;verticalAlign=middle;spacingLeft=4;spacingRight=4;overflow=hidden;points=[[0,0.5],[1,0.5]];portConstraint=eastwest;rotatable=0;whiteSpace=wrap;html=1;labelBackgroundColor=none;fontColor=#393C56;" parent="CGOxmBdp1kWUepC8ob1Y-9" vertex="1">
          <mxGeometry y="30" width="140" height="30" as="geometry" />
        </mxCell>
        <mxCell id="CGOxmBdp1kWUepC8ob1Y-11" value="cv" style="text;strokeColor=none;fillColor=none;align=left;verticalAlign=middle;spacingLeft=4;spacingRight=4;overflow=hidden;points=[[0,0.5],[1,0.5]];portConstraint=eastwest;rotatable=0;whiteSpace=wrap;html=1;labelBackgroundColor=none;fontColor=#393C56;" parent="CGOxmBdp1kWUepC8ob1Y-9" vertex="1">
          <mxGeometry y="60" width="140" height="30" as="geometry" />
        </mxCell>
        <mxCell id="CGOxmBdp1kWUepC8ob1Y-12" value="anne_promo" style="text;strokeColor=none;fillColor=none;align=left;verticalAlign=middle;spacingLeft=4;spacingRight=4;overflow=hidden;points=[[0,0.5],[1,0.5]];portConstraint=eastwest;rotatable=0;whiteSpace=wrap;html=1;labelBackgroundColor=none;fontColor=#393C56;" parent="CGOxmBdp1kWUepC8ob1Y-9" vertex="1">
          <mxGeometry y="90" width="140" height="30" as="geometry" />
        </mxCell>
        <mxCell id="CGOxmBdp1kWUepC8ob1Y-14" value="entreprise" style="text;strokeColor=none;fillColor=none;align=left;verticalAlign=middle;spacingLeft=4;spacingRight=4;overflow=hidden;points=[[0,0.5],[1,0.5]];portConstraint=eastwest;rotatable=0;whiteSpace=wrap;html=1;labelBackgroundColor=none;fontColor=#393C56;" parent="CGOxmBdp1kWUepC8ob1Y-9" vertex="1">
          <mxGeometry y="120" width="140" height="30" as="geometry" />
        </mxCell>
        <mxCell id="CGOxmBdp1kWUepC8ob1Y-13" value="poste_entreprise" style="text;strokeColor=none;fillColor=none;align=left;verticalAlign=middle;spacingLeft=4;spacingRight=4;overflow=hidden;points=[[0,0.5],[1,0.5]];portConstraint=eastwest;rotatable=0;whiteSpace=wrap;html=1;labelBackgroundColor=none;fontColor=#393C56;" parent="CGOxmBdp1kWUepC8ob1Y-9" vertex="1">
          <mxGeometry y="150" width="140" height="30" as="geometry" />
        </mxCell>
        <mxCell id="HE1txntKKnnB9kRg70EI-8" style="edgeStyle=orthogonalEdgeStyle;rounded=0;orthogonalLoop=1;jettySize=auto;html=1;exitX=0;exitY=0;exitDx=0;exitDy=0;endArrow=block;endFill=0;labelBackgroundColor=none;strokeColor=#E07A5F;fontColor=default;" parent="I36MxHCAxnk4FtEMSTyt-2" source="CGOxmBdp1kWUepC8ob1Y-16" target="CGOxmBdp1kWUepC8ob1Y-1" edge="1">
          <mxGeometry relative="1" as="geometry">
            <Array as="points">
              <mxPoint x="940" y="410" />
            </Array>
          </mxGeometry>
        </mxCell>
        <mxCell id="CGOxmBdp1kWUepC8ob1Y-16" value="Etudient" style="swimlane;fontStyle=0;childLayout=stackLayout;horizontal=1;startSize=30;horizontalStack=0;resizeParent=1;resizeParentMax=0;resizeLast=0;collapsible=1;marginBottom=0;whiteSpace=wrap;html=1;labelBackgroundColor=none;fillColor=#F2CC8F;strokeColor=#E07A5F;fontColor=#393C56;" parent="I36MxHCAxnk4FtEMSTyt-2" vertex="1">
          <mxGeometry x="940" y="400" width="140" height="150" as="geometry" />
        </mxCell>
        <mxCell id="CGOxmBdp1kWUepC8ob1Y-17" value="&lt;u&gt;ref_user&lt;/u&gt;" style="text;strokeColor=none;fillColor=none;align=left;verticalAlign=middle;spacingLeft=4;spacingRight=4;overflow=hidden;points=[[0,0.5],[1,0.5]];portConstraint=eastwest;rotatable=0;whiteSpace=wrap;html=1;labelBackgroundColor=none;fontColor=#393C56;" parent="CGOxmBdp1kWUepC8ob1Y-16" vertex="1">
          <mxGeometry y="30" width="140" height="30" as="geometry" />
        </mxCell>
        <mxCell id="CGOxmBdp1kWUepC8ob1Y-18" value="cv" style="text;strokeColor=none;fillColor=none;align=left;verticalAlign=middle;spacingLeft=4;spacingRight=4;overflow=hidden;points=[[0,0.5],[1,0.5]];portConstraint=eastwest;rotatable=0;whiteSpace=wrap;html=1;labelBackgroundColor=none;fontColor=#393C56;" parent="CGOxmBdp1kWUepC8ob1Y-16" vertex="1">
          <mxGeometry y="60" width="140" height="30" as="geometry" />
        </mxCell>
        <mxCell id="CGOxmBdp1kWUepC8ob1Y-19" value="anne_promo" style="text;strokeColor=none;fillColor=none;align=left;verticalAlign=middle;spacingLeft=4;spacingRight=4;overflow=hidden;points=[[0,0.5],[1,0.5]];portConstraint=eastwest;rotatable=0;whiteSpace=wrap;html=1;labelBackgroundColor=none;fontColor=#393C56;" parent="CGOxmBdp1kWUepC8ob1Y-16" vertex="1">
          <mxGeometry y="90" width="140" height="30" as="geometry" />
        </mxCell>
        <mxCell id="CGOxmBdp1kWUepC8ob1Y-20" value="formation" style="text;strokeColor=none;fillColor=none;align=left;verticalAlign=middle;spacingLeft=4;spacingRight=4;overflow=hidden;points=[[0,0.5],[1,0.5]];portConstraint=eastwest;rotatable=0;whiteSpace=wrap;html=1;labelBackgroundColor=none;fontColor=#393C56;" parent="CGOxmBdp1kWUepC8ob1Y-16" vertex="1">
          <mxGeometry y="120" width="140" height="30" as="geometry" />
        </mxCell>
        <mxCell id="CGOxmBdp1kWUepC8ob1Y-22" value="Professeur" style="swimlane;fontStyle=0;childLayout=stackLayout;horizontal=1;startSize=30;horizontalStack=0;resizeParent=1;resizeParentMax=0;resizeLast=0;collapsible=1;marginBottom=0;whiteSpace=wrap;html=1;labelBackgroundColor=none;fillColor=#F2CC8F;strokeColor=#E07A5F;fontColor=#393C56;" parent="I36MxHCAxnk4FtEMSTyt-2" vertex="1">
          <mxGeometry x="920" y="268" width="140" height="90" as="geometry" />
        </mxCell>
        <mxCell id="CGOxmBdp1kWUepC8ob1Y-23" value="&lt;u&gt;ref_user&lt;/u&gt;" style="text;strokeColor=none;fillColor=none;align=left;verticalAlign=middle;spacingLeft=4;spacingRight=4;overflow=hidden;points=[[0,0.5],[1,0.5]];portConstraint=eastwest;rotatable=0;whiteSpace=wrap;html=1;labelBackgroundColor=none;fontColor=#393C56;" parent="CGOxmBdp1kWUepC8ob1Y-22" vertex="1">
          <mxGeometry y="30" width="140" height="30" as="geometry" />
        </mxCell>
        <mxCell id="CGOxmBdp1kWUepC8ob1Y-24" value="specialite" style="text;strokeColor=none;fillColor=none;align=left;verticalAlign=middle;spacingLeft=4;spacingRight=4;overflow=hidden;points=[[0,0.5],[1,0.5]];portConstraint=eastwest;rotatable=0;whiteSpace=wrap;html=1;labelBackgroundColor=none;fontColor=#393C56;" parent="CGOxmBdp1kWUepC8ob1Y-22" vertex="1">
          <mxGeometry y="60" width="140" height="30" as="geometry" />
        </mxCell>
        <mxCell id="CGOxmBdp1kWUepC8ob1Y-27" value="Gestionnaire" style="swimlane;fontStyle=0;childLayout=stackLayout;horizontal=1;startSize=30;horizontalStack=0;resizeParent=1;resizeParentMax=0;resizeLast=0;collapsible=1;marginBottom=0;whiteSpace=wrap;html=1;labelBackgroundColor=none;fillColor=#F2CC8F;strokeColor=#E07A5F;fontColor=#393C56;" parent="I36MxHCAxnk4FtEMSTyt-2" vertex="1">
          <mxGeometry x="560" y="70" width="140" height="60" as="geometry" />
        </mxCell>
        <mxCell id="CGOxmBdp1kWUepC8ob1Y-28" value="&lt;u&gt;ref_user&lt;/u&gt;" style="text;strokeColor=none;fillColor=none;align=left;verticalAlign=middle;spacingLeft=4;spacingRight=4;overflow=hidden;points=[[0,0.5],[1,0.5]];portConstraint=eastwest;rotatable=0;whiteSpace=wrap;html=1;labelBackgroundColor=none;fontColor=#393C56;" parent="CGOxmBdp1kWUepC8ob1Y-27" vertex="1">
          <mxGeometry y="30" width="140" height="30" as="geometry" />
        </mxCell>
        <mxCell id="HE1txntKKnnB9kRg70EI-7" style="edgeStyle=orthogonalEdgeStyle;rounded=0;orthogonalLoop=1;jettySize=auto;html=1;exitX=1;exitY=0;exitDx=0;exitDy=0;endArrow=block;endFill=0;labelBackgroundColor=none;strokeColor=#E07A5F;fontColor=default;" parent="I36MxHCAxnk4FtEMSTyt-2" source="CGOxmBdp1kWUepC8ob1Y-30" target="CGOxmBdp1kWUepC8ob1Y-7" edge="1">
          <mxGeometry relative="1" as="geometry">
            <Array as="points">
              <mxPoint x="370" y="430" />
            </Array>
          </mxGeometry>
        </mxCell>
        <mxCell id="CGOxmBdp1kWUepC8ob1Y-30" value="Partenaire" style="swimlane;fontStyle=0;childLayout=stackLayout;horizontal=1;startSize=30;horizontalStack=0;resizeParent=1;resizeParentMax=0;resizeLast=0;collapsible=1;marginBottom=0;whiteSpace=wrap;html=1;labelBackgroundColor=none;fillColor=#F2CC8F;strokeColor=#E07A5F;fontColor=#393C56;" parent="I36MxHCAxnk4FtEMSTyt-2" vertex="1">
          <mxGeometry x="230" y="450" width="140" height="120" as="geometry" />
        </mxCell>
        <mxCell id="HE1txntKKnnB9kRg70EI-16" value="&lt;u&gt;ref-user&lt;/u&gt;" style="text;strokeColor=none;fillColor=none;align=left;verticalAlign=middle;spacingLeft=4;spacingRight=4;overflow=hidden;points=[[0,0.5],[1,0.5]];portConstraint=eastwest;rotatable=0;whiteSpace=wrap;html=1;labelBackgroundColor=none;fontColor=#393C56;" parent="CGOxmBdp1kWUepC8ob1Y-30" vertex="1">
          <mxGeometry y="30" width="140" height="30" as="geometry" />
        </mxCell>
        <mxCell id="CGOxmBdp1kWUepC8ob1Y-32" value="poste_occupe" style="text;strokeColor=none;fillColor=none;align=left;verticalAlign=middle;spacingLeft=4;spacingRight=4;overflow=hidden;points=[[0,0.5],[1,0.5]];portConstraint=eastwest;rotatable=0;whiteSpace=wrap;html=1;labelBackgroundColor=none;fontColor=#393C56;" parent="CGOxmBdp1kWUepC8ob1Y-30" vertex="1">
          <mxGeometry y="60" width="140" height="30" as="geometry" />
        </mxCell>
        <mxCell id="CGOxmBdp1kWUepC8ob1Y-88" value="motif_inscription" style="text;strokeColor=none;fillColor=none;align=left;verticalAlign=middle;spacingLeft=4;spacingRight=4;overflow=hidden;points=[[0,0.5],[1,0.5]];portConstraint=eastwest;rotatable=0;whiteSpace=wrap;html=1;labelBackgroundColor=none;fontColor=#393C56;" parent="CGOxmBdp1kWUepC8ob1Y-30" vertex="1">
          <mxGeometry y="90" width="140" height="30" as="geometry" />
        </mxCell>
        <mxCell id="CGOxmBdp1kWUepC8ob1Y-41" value="" style="endArrow=none;html=1;rounded=0;entryX=0.5;entryY=0;entryDx=0;entryDy=0;exitX=0.489;exitY=1.027;exitDx=0;exitDy=0;exitPerimeter=0;labelBackgroundColor=none;strokeColor=#E07A5F;fontColor=default;" parent="I36MxHCAxnk4FtEMSTyt-2" source="CGOxmBdp1kWUepC8ob1Y-28" target="CGOxmBdp1kWUepC8ob1Y-1" edge="1">
          <mxGeometry relative="1" as="geometry">
            <mxPoint x="630" y="140" as="sourcePoint" />
            <mxPoint x="790" y="150" as="targetPoint" />
          </mxGeometry>
        </mxCell>
        <mxCell id="CGOxmBdp1kWUepC8ob1Y-43" value="" style="endArrow=none;html=1;rounded=0;exitX=-0.003;exitY=0.07;exitDx=0;exitDy=0;exitPerimeter=0;labelBackgroundColor=none;strokeColor=#E07A5F;fontColor=default;" parent="I36MxHCAxnk4FtEMSTyt-2" source="CGOxmBdp1kWUepC8ob1Y-1" edge="1">
          <mxGeometry relative="1" as="geometry">
            <mxPoint x="460" y="370" as="sourcePoint" />
            <mxPoint x="570" y="100" as="targetPoint" />
            <Array as="points">
              <mxPoint x="460" y="250" />
              <mxPoint x="460" y="100" />
            </Array>
          </mxGeometry>
        </mxCell>
        <mxCell id="CGOxmBdp1kWUepC8ob1Y-44" value="Valide" style="swimlane;childLayout=stackLayout;horizontal=1;startSize=30;horizontalStack=0;rounded=1;fontSize=14;fontStyle=0;strokeWidth=2;resizeParent=0;resizeLast=1;shadow=0;dashed=0;align=center;arcSize=13;whiteSpace=wrap;html=1;movable=1;resizable=1;rotatable=1;deletable=1;editable=1;locked=0;connectable=1;labelBackgroundColor=none;fillColor=#F2CC8F;strokeColor=#E07A5F;fontColor=#393C56;" parent="I36MxHCAxnk4FtEMSTyt-2" vertex="1">
          <mxGeometry x="400" y="150" width="110" height="50" as="geometry" />
        </mxCell>
        <mxCell id="CGOxmBdp1kWUepC8ob1Y-46" value="0,n" style="text;html=1;align=center;verticalAlign=middle;resizable=0;points=[];autosize=1;strokeColor=none;fillColor=none;labelBackgroundColor=none;fontColor=#393C56;" parent="I36MxHCAxnk4FtEMSTyt-2" vertex="1">
          <mxGeometry x="510" y="60" width="40" height="30" as="geometry" />
        </mxCell>
        <mxCell id="CGOxmBdp1kWUepC8ob1Y-47" value="1,1" style="text;html=1;align=center;verticalAlign=middle;resizable=0;points=[];autosize=1;strokeColor=none;fillColor=none;labelBackgroundColor=none;fontColor=#393C56;" parent="I36MxHCAxnk4FtEMSTyt-2" vertex="1">
          <mxGeometry x="510" y="268" width="40" height="30" as="geometry" />
        </mxCell>
        <mxCell id="CGOxmBdp1kWUepC8ob1Y-50" value="1,n" style="text;html=1;align=center;verticalAlign=middle;resizable=0;points=[];autosize=1;strokeColor=none;fillColor=none;labelBackgroundColor=none;fontColor=#393C56;" parent="I36MxHCAxnk4FtEMSTyt-2" vertex="1">
          <mxGeometry x="600" y="210" width="40" height="30" as="geometry" />
        </mxCell>
        <mxCell id="CGOxmBdp1kWUepC8ob1Y-51" value="0,1" style="text;html=1;align=center;verticalAlign=middle;resizable=0;points=[];autosize=1;strokeColor=none;fillColor=none;labelBackgroundColor=none;fontColor=#393C56;" parent="I36MxHCAxnk4FtEMSTyt-2" vertex="1">
          <mxGeometry x="640" y="130" width="40" height="30" as="geometry" />
        </mxCell>
        <mxCell id="CGOxmBdp1kWUepC8ob1Y-55" value="S&#39;identifie" style="swimlane;childLayout=stackLayout;horizontal=1;startSize=30;horizontalStack=0;rounded=1;fontSize=14;fontStyle=0;strokeWidth=2;resizeParent=0;resizeLast=1;shadow=0;dashed=0;align=center;arcSize=13;whiteSpace=wrap;html=1;movable=1;resizable=1;rotatable=1;deletable=1;editable=1;locked=0;connectable=1;labelBackgroundColor=none;fillColor=#F2CC8F;strokeColor=#E07A5F;fontColor=#393C56;" parent="I36MxHCAxnk4FtEMSTyt-2" vertex="1">
          <mxGeometry x="580" y="160" width="110" height="50" as="geometry" />
        </mxCell>
        <mxCell id="CGOxmBdp1kWUepC8ob1Y-58" value="" style="endArrow=none;html=1;rounded=0;labelBackgroundColor=none;strokeColor=#E07A5F;fontColor=default;" parent="I36MxHCAxnk4FtEMSTyt-2" edge="1">
          <mxGeometry relative="1" as="geometry">
            <mxPoint x="640" y="620" as="sourcePoint" />
            <mxPoint x="640" y="450" as="targetPoint" />
          </mxGeometry>
        </mxCell>
        <mxCell id="CGOxmBdp1kWUepC8ob1Y-66" value="Formation" style="swimlane;fontStyle=0;childLayout=stackLayout;horizontal=1;startSize=30;horizontalStack=0;resizeParent=1;resizeParentMax=0;resizeLast=0;collapsible=1;marginBottom=0;whiteSpace=wrap;html=1;labelBackgroundColor=none;fillColor=#F2CC8F;strokeColor=#E07A5F;fontColor=#393C56;" parent="I36MxHCAxnk4FtEMSTyt-2" vertex="1">
          <mxGeometry x="1280" y="268" width="140" height="90" as="geometry" />
        </mxCell>
        <mxCell id="CGOxmBdp1kWUepC8ob1Y-67" value="&lt;u&gt;id_formation&lt;/u&gt;" style="text;strokeColor=none;fillColor=none;align=left;verticalAlign=middle;spacingLeft=4;spacingRight=4;overflow=hidden;points=[[0,0.5],[1,0.5]];portConstraint=eastwest;rotatable=0;whiteSpace=wrap;html=1;labelBackgroundColor=none;fontColor=#393C56;" parent="CGOxmBdp1kWUepC8ob1Y-66" vertex="1">
          <mxGeometry y="30" width="140" height="30" as="geometry" />
        </mxCell>
        <mxCell id="CGOxmBdp1kWUepC8ob1Y-68" value="nom" style="text;strokeColor=none;fillColor=none;align=left;verticalAlign=middle;spacingLeft=4;spacingRight=4;overflow=hidden;points=[[0,0.5],[1,0.5]];portConstraint=eastwest;rotatable=0;whiteSpace=wrap;html=1;labelBackgroundColor=none;fontColor=#393C56;" parent="CGOxmBdp1kWUepC8ob1Y-66" vertex="1">
          <mxGeometry y="60" width="140" height="30" as="geometry" />
        </mxCell>
        <mxCell id="CGOxmBdp1kWUepC8ob1Y-69" value="" style="endArrow=none;html=1;rounded=0;labelBackgroundColor=none;strokeColor=#E07A5F;fontColor=default;" parent="I36MxHCAxnk4FtEMSTyt-2" target="CGOxmBdp1kWUepC8ob1Y-67" edge="1">
          <mxGeometry relative="1" as="geometry">
            <mxPoint x="1060" y="310" as="sourcePoint" />
            <mxPoint x="1270" y="310" as="targetPoint" />
          </mxGeometry>
        </mxCell>
        <mxCell id="CGOxmBdp1kWUepC8ob1Y-70" value="Affiliée&amp;nbsp;" style="swimlane;childLayout=stackLayout;horizontal=1;startSize=30;horizontalStack=0;rounded=1;fontSize=14;fontStyle=0;strokeWidth=2;resizeParent=0;resizeLast=1;shadow=0;dashed=0;align=center;arcSize=13;whiteSpace=wrap;html=1;movable=1;resizable=1;rotatable=1;deletable=1;editable=1;locked=0;connectable=1;labelBackgroundColor=none;fillColor=#F2CC8F;strokeColor=#E07A5F;fontColor=#393C56;" parent="I36MxHCAxnk4FtEMSTyt-2" vertex="1">
          <mxGeometry x="1120" y="280" width="110" height="50" as="geometry" />
        </mxCell>
        <mxCell id="CGOxmBdp1kWUepC8ob1Y-71" value="1,n" style="text;html=1;align=center;verticalAlign=middle;resizable=0;points=[];autosize=1;strokeColor=none;fillColor=none;labelBackgroundColor=none;fontColor=#393C56;" parent="I36MxHCAxnk4FtEMSTyt-2" vertex="1">
          <mxGeometry x="1070" y="280" width="40" height="30" as="geometry" />
        </mxCell>
        <mxCell id="CGOxmBdp1kWUepC8ob1Y-72" value="1,n" style="text;html=1;align=center;verticalAlign=middle;resizable=0;points=[];autosize=1;strokeColor=none;fillColor=none;labelBackgroundColor=none;fontColor=#393C56;" parent="I36MxHCAxnk4FtEMSTyt-2" vertex="1">
          <mxGeometry x="1240" y="280" width="40" height="30" as="geometry" />
        </mxCell>
        <mxCell id="CGOxmBdp1kWUepC8ob1Y-73" value="" style="endArrow=none;html=1;rounded=0;labelBackgroundColor=none;strokeColor=#E07A5F;fontColor=default;" parent="I36MxHCAxnk4FtEMSTyt-2" edge="1">
          <mxGeometry relative="1" as="geometry">
            <mxPoint x="1080" y="480" as="sourcePoint" />
            <mxPoint x="1360" y="480" as="targetPoint" />
          </mxGeometry>
        </mxCell>
        <mxCell id="CGOxmBdp1kWUepC8ob1Y-74" value="" style="endArrow=none;html=1;rounded=0;entryX=0.529;entryY=1.053;entryDx=0;entryDy=0;entryPerimeter=0;labelBackgroundColor=none;strokeColor=#E07A5F;fontColor=default;" parent="I36MxHCAxnk4FtEMSTyt-2" target="CGOxmBdp1kWUepC8ob1Y-68" edge="1">
          <mxGeometry relative="1" as="geometry">
            <mxPoint x="1354" y="480" as="sourcePoint" />
            <mxPoint x="1460" y="440" as="targetPoint" />
          </mxGeometry>
        </mxCell>
        <mxCell id="CGOxmBdp1kWUepC8ob1Y-75" value="Etudie" style="swimlane;childLayout=stackLayout;horizontal=1;startSize=30;horizontalStack=0;rounded=1;fontSize=14;fontStyle=0;strokeWidth=2;resizeParent=0;resizeLast=1;shadow=0;dashed=0;align=center;arcSize=13;whiteSpace=wrap;html=1;movable=1;resizable=1;rotatable=1;deletable=1;editable=1;locked=0;connectable=1;labelBackgroundColor=none;fillColor=#F2CC8F;strokeColor=#E07A5F;fontColor=#393C56;" parent="I36MxHCAxnk4FtEMSTyt-2" vertex="1">
          <mxGeometry x="1295" y="450" width="110" height="50" as="geometry" />
        </mxCell>
        <mxCell id="CGOxmBdp1kWUepC8ob1Y-76" value="1,n" style="text;html=1;align=center;verticalAlign=middle;resizable=0;points=[];autosize=1;strokeColor=none;fillColor=none;labelBackgroundColor=none;fontColor=#393C56;" parent="I36MxHCAxnk4FtEMSTyt-2" vertex="1">
          <mxGeometry x="1365" y="358" width="40" height="30" as="geometry" />
        </mxCell>
        <mxCell id="CGOxmBdp1kWUepC8ob1Y-77" value="1,1" style="text;html=1;align=center;verticalAlign=middle;resizable=0;points=[];autosize=1;strokeColor=none;fillColor=none;labelBackgroundColor=none;fontColor=#393C56;" parent="I36MxHCAxnk4FtEMSTyt-2" vertex="1">
          <mxGeometry x="1090" y="490" width="40" height="30" as="geometry" />
        </mxCell>
        <mxCell id="CGOxmBdp1kWUepC8ob1Y-89" value="Fiche_entreprise" style="swimlane;fontStyle=0;childLayout=stackLayout;horizontal=1;startSize=30;horizontalStack=0;resizeParent=1;resizeParentMax=0;resizeLast=0;collapsible=1;marginBottom=0;whiteSpace=wrap;html=1;labelBackgroundColor=none;fillColor=#F2CC8F;strokeColor=#E07A5F;fontColor=#393C56;" parent="I36MxHCAxnk4FtEMSTyt-2" vertex="1">
          <mxGeometry x="230" y="710" width="140" height="150" as="geometry" />
        </mxCell>
        <mxCell id="CGOxmBdp1kWUepC8ob1Y-90" value="&lt;u&gt;id_fiche_entreprise&lt;/u&gt;" style="text;strokeColor=none;fillColor=none;align=left;verticalAlign=middle;spacingLeft=4;spacingRight=4;overflow=hidden;points=[[0,0.5],[1,0.5]];portConstraint=eastwest;rotatable=0;whiteSpace=wrap;html=1;labelBackgroundColor=none;fontColor=#393C56;" parent="CGOxmBdp1kWUepC8ob1Y-89" vertex="1">
          <mxGeometry y="30" width="140" height="30" as="geometry" />
        </mxCell>
        <mxCell id="CGOxmBdp1kWUepC8ob1Y-91" value="nom_entreprise" style="text;strokeColor=none;fillColor=none;align=left;verticalAlign=middle;spacingLeft=4;spacingRight=4;overflow=hidden;points=[[0,0.5],[1,0.5]];portConstraint=eastwest;rotatable=0;whiteSpace=wrap;html=1;labelBackgroundColor=none;fontColor=#393C56;" parent="CGOxmBdp1kWUepC8ob1Y-89" vertex="1">
          <mxGeometry y="60" width="140" height="30" as="geometry" />
        </mxCell>
        <mxCell id="CGOxmBdp1kWUepC8ob1Y-92" value="adresse_entreprise" style="text;strokeColor=none;fillColor=none;align=left;verticalAlign=middle;spacingLeft=4;spacingRight=4;overflow=hidden;points=[[0,0.5],[1,0.5]];portConstraint=eastwest;rotatable=0;whiteSpace=wrap;html=1;labelBackgroundColor=none;fontColor=#393C56;" parent="CGOxmBdp1kWUepC8ob1Y-89" vertex="1">
          <mxGeometry y="90" width="140" height="30" as="geometry" />
        </mxCell>
        <mxCell id="CGOxmBdp1kWUepC8ob1Y-93" value="adresse_web_entreprise" style="text;strokeColor=none;fillColor=none;align=left;verticalAlign=middle;spacingLeft=4;spacingRight=4;overflow=hidden;points=[[0,0.5],[1,0.5]];portConstraint=eastwest;rotatable=0;whiteSpace=wrap;html=1;labelBackgroundColor=none;fontColor=#393C56;" parent="CGOxmBdp1kWUepC8ob1Y-89" vertex="1">
          <mxGeometry y="120" width="140" height="30" as="geometry" />
        </mxCell>
        <mxCell id="CGOxmBdp1kWUepC8ob1Y-103" value="" style="endArrow=none;html=1;rounded=0;entryX=0.497;entryY=0.973;entryDx=0;entryDy=0;entryPerimeter=0;labelBackgroundColor=none;strokeColor=#E07A5F;fontColor=default;" parent="I36MxHCAxnk4FtEMSTyt-2" target="CGOxmBdp1kWUepC8ob1Y-88" edge="1">
          <mxGeometry relative="1" as="geometry">
            <mxPoint x="300" y="710" as="sourcePoint" />
            <mxPoint x="298.1799999999999" y="580" as="targetPoint" />
          </mxGeometry>
        </mxCell>
        <mxCell id="CGOxmBdp1kWUepC8ob1Y-104" value="Créer" style="swimlane;childLayout=stackLayout;horizontal=1;startSize=30;horizontalStack=0;rounded=1;fontSize=14;fontStyle=0;strokeWidth=2;resizeParent=0;resizeLast=1;shadow=0;dashed=0;align=center;arcSize=13;whiteSpace=wrap;html=1;movable=1;resizable=1;rotatable=1;deletable=1;editable=1;locked=0;connectable=1;labelBackgroundColor=none;fillColor=#F2CC8F;strokeColor=#E07A5F;fontColor=#393C56;" parent="I36MxHCAxnk4FtEMSTyt-2" vertex="1">
          <mxGeometry x="250" y="610" width="110" height="50" as="geometry" />
        </mxCell>
        <mxCell id="CGOxmBdp1kWUepC8ob1Y-105" value="" style="endArrow=none;html=1;rounded=0;entryX=0;entryY=0.5;entryDx=0;entryDy=0;labelBackgroundColor=none;strokeColor=#E07A5F;fontColor=default;" parent="I36MxHCAxnk4FtEMSTyt-2" target="CGOxmBdp1kWUepC8ob1Y-13" edge="1">
          <mxGeometry relative="1" as="geometry">
            <mxPoint x="375" y="784.5" as="sourcePoint" />
            <mxPoint x="535" y="784.5" as="targetPoint" />
          </mxGeometry>
        </mxCell>
        <mxCell id="CGOxmBdp1kWUepC8ob1Y-106" value="Créer" style="swimlane;childLayout=stackLayout;horizontal=1;startSize=30;horizontalStack=0;rounded=1;fontSize=14;fontStyle=0;strokeWidth=2;resizeParent=0;resizeLast=1;shadow=0;dashed=0;align=center;arcSize=13;whiteSpace=wrap;html=1;movable=1;resizable=1;rotatable=1;deletable=1;editable=1;locked=0;connectable=1;labelBackgroundColor=none;fillColor=#F2CC8F;strokeColor=#E07A5F;fontColor=#393C56;" parent="I36MxHCAxnk4FtEMSTyt-2" vertex="1">
          <mxGeometry x="410" y="760" width="110" height="50" as="geometry" />
        </mxCell>
        <mxCell id="CGOxmBdp1kWUepC8ob1Y-107" value="1,1" style="text;html=1;align=center;verticalAlign=middle;resizable=0;points=[];autosize=1;strokeColor=none;fillColor=none;labelBackgroundColor=none;fontColor=#393C56;" parent="I36MxHCAxnk4FtEMSTyt-2" vertex="1">
          <mxGeometry x="530" y="750" width="40" height="30" as="geometry" />
        </mxCell>
        <mxCell id="CGOxmBdp1kWUepC8ob1Y-108" value="0,n" style="text;html=1;align=center;verticalAlign=middle;resizable=0;points=[];autosize=1;strokeColor=none;fillColor=none;labelBackgroundColor=none;fontColor=#393C56;" parent="I36MxHCAxnk4FtEMSTyt-2" vertex="1">
          <mxGeometry x="370" y="750" width="40" height="30" as="geometry" />
        </mxCell>
        <mxCell id="CGOxmBdp1kWUepC8ob1Y-109" value="0,n" style="text;html=1;align=center;verticalAlign=middle;resizable=0;points=[];autosize=1;strokeColor=none;fillColor=none;labelBackgroundColor=none;fontColor=#393C56;" parent="I36MxHCAxnk4FtEMSTyt-2" vertex="1">
          <mxGeometry x="310" y="680" width="40" height="30" as="geometry" />
        </mxCell>
        <mxCell id="CGOxmBdp1kWUepC8ob1Y-110" value="1,1" style="text;html=1;align=center;verticalAlign=middle;resizable=0;points=[];autosize=1;strokeColor=none;fillColor=none;labelBackgroundColor=none;fontColor=#393C56;" parent="I36MxHCAxnk4FtEMSTyt-2" vertex="1">
          <mxGeometry x="260" y="570" width="40" height="30" as="geometry" />
        </mxCell>
        <mxCell id="CGOxmBdp1kWUepC8ob1Y-111" value="Offre" style="swimlane;fontStyle=0;childLayout=stackLayout;horizontal=1;startSize=30;horizontalStack=0;resizeParent=1;resizeParentMax=0;resizeLast=0;collapsible=1;marginBottom=0;whiteSpace=wrap;html=1;labelBackgroundColor=none;fillColor=#F2CC8F;strokeColor=#E07A5F;fontColor=#393C56;" parent="I36MxHCAxnk4FtEMSTyt-2" vertex="1">
          <mxGeometry x="140" y="193" width="140" height="240" as="geometry" />
        </mxCell>
        <mxCell id="CGOxmBdp1kWUepC8ob1Y-112" value="&lt;u&gt;id_offre&lt;/u&gt;" style="text;strokeColor=none;fillColor=none;align=left;verticalAlign=middle;spacingLeft=4;spacingRight=4;overflow=hidden;points=[[0,0.5],[1,0.5]];portConstraint=eastwest;rotatable=0;whiteSpace=wrap;html=1;labelBackgroundColor=none;fontColor=#393C56;" parent="CGOxmBdp1kWUepC8ob1Y-111" vertex="1">
          <mxGeometry y="30" width="140" height="30" as="geometry" />
        </mxCell>
        <mxCell id="CGOxmBdp1kWUepC8ob1Y-113" value="titre" style="text;strokeColor=none;fillColor=none;align=left;verticalAlign=middle;spacingLeft=4;spacingRight=4;overflow=hidden;points=[[0,0.5],[1,0.5]];portConstraint=eastwest;rotatable=0;whiteSpace=wrap;html=1;labelBackgroundColor=none;fontColor=#393C56;" parent="CGOxmBdp1kWUepC8ob1Y-111" vertex="1">
          <mxGeometry y="60" width="140" height="30" as="geometry" />
        </mxCell>
        <mxCell id="CGOxmBdp1kWUepC8ob1Y-115" value="description" style="text;strokeColor=none;fillColor=none;align=left;verticalAlign=middle;spacingLeft=4;spacingRight=4;overflow=hidden;points=[[0,0.5],[1,0.5]];portConstraint=eastwest;rotatable=0;whiteSpace=wrap;html=1;labelBackgroundColor=none;fontColor=#393C56;" parent="CGOxmBdp1kWUepC8ob1Y-111" vertex="1">
          <mxGeometry y="90" width="140" height="30" as="geometry" />
        </mxCell>
        <mxCell id="CGOxmBdp1kWUepC8ob1Y-116" value="mission" style="text;strokeColor=none;fillColor=none;align=left;verticalAlign=middle;spacingLeft=4;spacingRight=4;overflow=hidden;points=[[0,0.5],[1,0.5]];portConstraint=eastwest;rotatable=0;whiteSpace=wrap;html=1;labelBackgroundColor=none;fontColor=#393C56;" parent="CGOxmBdp1kWUepC8ob1Y-111" vertex="1">
          <mxGeometry y="120" width="140" height="30" as="geometry" />
        </mxCell>
        <mxCell id="CGOxmBdp1kWUepC8ob1Y-117" value="salaire" style="text;strokeColor=none;fillColor=none;align=left;verticalAlign=middle;spacingLeft=4;spacingRight=4;overflow=hidden;points=[[0,0.5],[1,0.5]];portConstraint=eastwest;rotatable=0;whiteSpace=wrap;html=1;labelBackgroundColor=none;fontColor=#393C56;" parent="CGOxmBdp1kWUepC8ob1Y-111" vertex="1">
          <mxGeometry y="150" width="140" height="30" as="geometry" />
        </mxCell>
        <mxCell id="CGOxmBdp1kWUepC8ob1Y-114" value="type" style="text;strokeColor=none;fillColor=none;align=left;verticalAlign=middle;spacingLeft=4;spacingRight=4;overflow=hidden;points=[[0,0.5],[1,0.5]];portConstraint=eastwest;rotatable=0;whiteSpace=wrap;html=1;labelBackgroundColor=none;fontColor=#393C56;" parent="CGOxmBdp1kWUepC8ob1Y-111" vertex="1">
          <mxGeometry y="180" width="140" height="30" as="geometry" />
        </mxCell>
        <mxCell id="CGOxmBdp1kWUepC8ob1Y-118" value="etat" style="text;strokeColor=none;fillColor=none;align=left;verticalAlign=middle;spacingLeft=4;spacingRight=4;overflow=hidden;points=[[0,0.5],[1,0.5]];portConstraint=eastwest;rotatable=0;whiteSpace=wrap;html=1;labelBackgroundColor=none;fontColor=#393C56;" parent="CGOxmBdp1kWUepC8ob1Y-111" vertex="1">
          <mxGeometry y="210" width="140" height="30" as="geometry" />
        </mxCell>
        <mxCell id="CGOxmBdp1kWUepC8ob1Y-119" value="" style="endArrow=none;html=1;rounded=0;exitX=1.009;exitY=0.78;exitDx=0;exitDy=0;exitPerimeter=0;labelBackgroundColor=none;strokeColor=#E07A5F;fontColor=default;" parent="I36MxHCAxnk4FtEMSTyt-2" source="CGOxmBdp1kWUepC8ob1Y-116" edge="1">
          <mxGeometry relative="1" as="geometry">
            <mxPoint x="400" y="340" as="sourcePoint" />
            <mxPoint x="560" y="340" as="targetPoint" />
          </mxGeometry>
        </mxCell>
        <mxCell id="CGOxmBdp1kWUepC8ob1Y-120" value="postuler" style="swimlane;childLayout=stackLayout;horizontal=1;startSize=30;horizontalStack=0;rounded=1;fontSize=14;fontStyle=0;strokeWidth=2;resizeParent=0;resizeLast=1;shadow=0;dashed=0;align=center;arcSize=13;whiteSpace=wrap;html=1;movable=1;resizable=1;rotatable=1;deletable=1;editable=1;locked=0;connectable=1;labelBackgroundColor=none;fillColor=#F2CC8F;strokeColor=#E07A5F;fontColor=#393C56;" parent="I36MxHCAxnk4FtEMSTyt-2" vertex="1">
          <mxGeometry x="360" y="308" width="110" height="55" as="geometry" />
        </mxCell>
        <mxCell id="HE1txntKKnnB9kRg70EI-1" value="valide" style="text;html=1;align=center;verticalAlign=middle;resizable=0;points=[];autosize=1;strokeColor=none;fillColor=none;labelBackgroundColor=none;fontColor=#393C56;" parent="CGOxmBdp1kWUepC8ob1Y-120" vertex="1">
          <mxGeometry y="30" width="110" height="25" as="geometry" />
        </mxCell>
        <mxCell id="CGOxmBdp1kWUepC8ob1Y-121" value="0,n" style="text;html=1;align=center;verticalAlign=middle;resizable=0;points=[];autosize=1;strokeColor=none;fillColor=none;labelBackgroundColor=none;fontColor=#393C56;" parent="I36MxHCAxnk4FtEMSTyt-2" vertex="1">
          <mxGeometry x="510" y="308" width="40" height="30" as="geometry" />
        </mxCell>
        <mxCell id="CGOxmBdp1kWUepC8ob1Y-122" value="0,n" style="text;html=1;align=center;verticalAlign=middle;resizable=0;points=[];autosize=1;strokeColor=none;fillColor=none;labelBackgroundColor=none;fontColor=#393C56;" parent="I36MxHCAxnk4FtEMSTyt-2" vertex="1">
          <mxGeometry x="290" y="308" width="40" height="30" as="geometry" />
        </mxCell>
        <mxCell id="CGOxmBdp1kWUepC8ob1Y-123" value="Evenement" style="swimlane;fontStyle=0;childLayout=stackLayout;horizontal=1;startSize=30;horizontalStack=0;resizeParent=1;resizeParentMax=0;resizeLast=0;collapsible=1;marginBottom=0;whiteSpace=wrap;html=1;labelBackgroundColor=none;fillColor=#F2CC8F;strokeColor=#E07A5F;fontColor=#393C56;" parent="I36MxHCAxnk4FtEMSTyt-2" vertex="1">
          <mxGeometry x="1070" width="140" height="240" as="geometry" />
        </mxCell>
        <mxCell id="CGOxmBdp1kWUepC8ob1Y-124" value="&lt;u&gt;id_evenement&lt;/u&gt;" style="text;strokeColor=none;fillColor=none;align=left;verticalAlign=middle;spacingLeft=4;spacingRight=4;overflow=hidden;points=[[0,0.5],[1,0.5]];portConstraint=eastwest;rotatable=0;whiteSpace=wrap;html=1;labelBackgroundColor=none;fontColor=#393C56;" parent="CGOxmBdp1kWUepC8ob1Y-123" vertex="1">
          <mxGeometry y="30" width="140" height="30" as="geometry" />
        </mxCell>
        <mxCell id="CGOxmBdp1kWUepC8ob1Y-125" value="type_eve" style="text;strokeColor=none;fillColor=none;align=left;verticalAlign=middle;spacingLeft=4;spacingRight=4;overflow=hidden;points=[[0,0.5],[1,0.5]];portConstraint=eastwest;rotatable=0;whiteSpace=wrap;html=1;labelBackgroundColor=none;fontColor=#393C56;" parent="CGOxmBdp1kWUepC8ob1Y-123" vertex="1">
          <mxGeometry y="60" width="140" height="30" as="geometry" />
        </mxCell>
        <mxCell id="CGOxmBdp1kWUepC8ob1Y-126" value="titre_eve" style="text;strokeColor=none;fillColor=none;align=left;verticalAlign=middle;spacingLeft=4;spacingRight=4;overflow=hidden;points=[[0,0.5],[1,0.5]];portConstraint=eastwest;rotatable=0;whiteSpace=wrap;html=1;labelBackgroundColor=none;fontColor=#393C56;" parent="CGOxmBdp1kWUepC8ob1Y-123" vertex="1">
          <mxGeometry y="90" width="140" height="30" as="geometry" />
        </mxCell>
        <mxCell id="CGOxmBdp1kWUepC8ob1Y-127" value="desc_eve" style="text;strokeColor=none;fillColor=none;align=left;verticalAlign=middle;spacingLeft=4;spacingRight=4;overflow=hidden;points=[[0,0.5],[1,0.5]];portConstraint=eastwest;rotatable=0;whiteSpace=wrap;html=1;labelBackgroundColor=none;fontColor=#393C56;" parent="CGOxmBdp1kWUepC8ob1Y-123" vertex="1">
          <mxGeometry y="120" width="140" height="30" as="geometry" />
        </mxCell>
        <mxCell id="CGOxmBdp1kWUepC8ob1Y-128" value="lieu_eve" style="text;strokeColor=none;fillColor=none;align=left;verticalAlign=middle;spacingLeft=4;spacingRight=4;overflow=hidden;points=[[0,0.5],[1,0.5]];portConstraint=eastwest;rotatable=0;whiteSpace=wrap;html=1;labelBackgroundColor=none;fontColor=#393C56;" parent="CGOxmBdp1kWUepC8ob1Y-123" vertex="1">
          <mxGeometry y="150" width="140" height="30" as="geometry" />
        </mxCell>
        <mxCell id="CGOxmBdp1kWUepC8ob1Y-129" value="element_eve" style="text;strokeColor=none;fillColor=none;align=left;verticalAlign=middle;spacingLeft=4;spacingRight=4;overflow=hidden;points=[[0,0.5],[1,0.5]];portConstraint=eastwest;rotatable=0;whiteSpace=wrap;html=1;labelBackgroundColor=none;fontColor=#393C56;" parent="CGOxmBdp1kWUepC8ob1Y-123" vertex="1">
          <mxGeometry y="180" width="140" height="30" as="geometry" />
        </mxCell>
        <mxCell id="CGOxmBdp1kWUepC8ob1Y-130" value="nb_place" style="text;strokeColor=none;fillColor=none;align=left;verticalAlign=middle;spacingLeft=4;spacingRight=4;overflow=hidden;points=[[0,0.5],[1,0.5]];portConstraint=eastwest;rotatable=0;whiteSpace=wrap;html=1;labelBackgroundColor=none;fontColor=#393C56;" parent="CGOxmBdp1kWUepC8ob1Y-123" vertex="1">
          <mxGeometry y="210" width="140" height="30" as="geometry" />
        </mxCell>
        <mxCell id="CGOxmBdp1kWUepC8ob1Y-131" value="" style="endArrow=none;html=1;rounded=0;entryX=0.011;entryY=1.067;entryDx=0;entryDy=0;entryPerimeter=0;labelBackgroundColor=none;strokeColor=#E07A5F;fontColor=default;" parent="I36MxHCAxnk4FtEMSTyt-2" target="CGOxmBdp1kWUepC8ob1Y-130" edge="1">
          <mxGeometry relative="1" as="geometry">
            <mxPoint x="700" y="239" as="sourcePoint" />
            <mxPoint x="1020" y="239" as="targetPoint" />
          </mxGeometry>
        </mxCell>
        <mxCell id="CGOxmBdp1kWUepC8ob1Y-134" value="participer" style="swimlane;childLayout=stackLayout;horizontal=1;startSize=30;horizontalStack=0;rounded=1;fontSize=14;fontStyle=0;strokeWidth=2;resizeParent=0;resizeLast=1;shadow=0;dashed=0;align=center;arcSize=13;whiteSpace=wrap;html=1;movable=1;resizable=1;rotatable=1;deletable=1;editable=1;locked=0;connectable=1;labelBackgroundColor=none;fillColor=#F2CC8F;strokeColor=#E07A5F;fontColor=#393C56;" parent="I36MxHCAxnk4FtEMSTyt-2" vertex="1">
          <mxGeometry x="830" y="210" width="110" height="50" as="geometry" />
        </mxCell>
        <mxCell id="CGOxmBdp1kWUepC8ob1Y-135" value="0,n" style="text;html=1;align=center;verticalAlign=middle;resizable=0;points=[];autosize=1;strokeColor=none;fillColor=none;labelBackgroundColor=none;fontColor=#393C56;" parent="I36MxHCAxnk4FtEMSTyt-2" vertex="1">
          <mxGeometry x="1020" y="210" width="40" height="30" as="geometry" />
        </mxCell>
        <mxCell id="CGOxmBdp1kWUepC8ob1Y-136" value="0,n" style="text;html=1;align=center;verticalAlign=middle;resizable=0;points=[];autosize=1;strokeColor=none;fillColor=none;labelBackgroundColor=none;fontColor=#393C56;" parent="I36MxHCAxnk4FtEMSTyt-2" vertex="1">
          <mxGeometry x="730" y="210" width="40" height="30" as="geometry" />
        </mxCell>
        <mxCell id="CGOxmBdp1kWUepC8ob1Y-137" value="Post" style="swimlane;fontStyle=0;childLayout=stackLayout;horizontal=1;startSize=30;horizontalStack=0;resizeParent=1;resizeParentMax=0;resizeLast=0;collapsible=1;marginBottom=0;whiteSpace=wrap;html=1;labelBackgroundColor=none;fillColor=#F2CC8F;strokeColor=#E07A5F;fontColor=#393C56;" parent="I36MxHCAxnk4FtEMSTyt-2" vertex="1">
          <mxGeometry x="770" y="610" width="140" height="150" as="geometry" />
        </mxCell>
        <mxCell id="CGOxmBdp1kWUepC8ob1Y-138" value="&lt;u&gt;id_post&lt;/u&gt;" style="text;strokeColor=none;fillColor=none;align=left;verticalAlign=middle;spacingLeft=4;spacingRight=4;overflow=hidden;points=[[0,0.5],[1,0.5]];portConstraint=eastwest;rotatable=0;whiteSpace=wrap;html=1;labelBackgroundColor=none;fontColor=#393C56;" parent="CGOxmBdp1kWUepC8ob1Y-137" vertex="1">
          <mxGeometry y="30" width="140" height="30" as="geometry" />
        </mxCell>
        <mxCell id="CGOxmBdp1kWUepC8ob1Y-139" value="canal" style="text;strokeColor=none;fillColor=none;align=left;verticalAlign=middle;spacingLeft=4;spacingRight=4;overflow=hidden;points=[[0,0.5],[1,0.5]];portConstraint=eastwest;rotatable=0;whiteSpace=wrap;html=1;labelBackgroundColor=none;fontColor=#393C56;" parent="CGOxmBdp1kWUepC8ob1Y-137" vertex="1">
          <mxGeometry y="60" width="140" height="30" as="geometry" />
        </mxCell>
        <mxCell id="CGOxmBdp1kWUepC8ob1Y-140" value="titre_post" style="text;strokeColor=none;fillColor=none;align=left;verticalAlign=middle;spacingLeft=4;spacingRight=4;overflow=hidden;points=[[0,0.5],[1,0.5]];portConstraint=eastwest;rotatable=0;whiteSpace=wrap;html=1;labelBackgroundColor=none;fontColor=#393C56;" parent="CGOxmBdp1kWUepC8ob1Y-137" vertex="1">
          <mxGeometry y="90" width="140" height="30" as="geometry" />
        </mxCell>
        <mxCell id="CGOxmBdp1kWUepC8ob1Y-141" value="date_heure_post" style="text;strokeColor=none;fillColor=none;align=left;verticalAlign=middle;spacingLeft=4;spacingRight=4;overflow=hidden;points=[[0,0.5],[1,0.5]];portConstraint=eastwest;rotatable=0;whiteSpace=wrap;html=1;labelBackgroundColor=none;fontColor=#393C56;" parent="CGOxmBdp1kWUepC8ob1Y-137" vertex="1">
          <mxGeometry y="120" width="140" height="30" as="geometry" />
        </mxCell>
        <mxCell id="CGOxmBdp1kWUepC8ob1Y-143" value="Reponse" style="swimlane;fontStyle=0;childLayout=stackLayout;horizontal=1;startSize=30;horizontalStack=0;resizeParent=1;resizeParentMax=0;resizeLast=0;collapsible=1;marginBottom=0;whiteSpace=wrap;html=1;labelBackgroundColor=none;fillColor=#F2CC8F;strokeColor=#E07A5F;fontColor=#393C56;" parent="I36MxHCAxnk4FtEMSTyt-2" vertex="1">
          <mxGeometry x="1170" y="610" width="140" height="120" as="geometry" />
        </mxCell>
        <mxCell id="CGOxmBdp1kWUepC8ob1Y-144" value="&lt;u&gt;id_reponse&lt;/u&gt;" style="text;strokeColor=none;fillColor=none;align=left;verticalAlign=middle;spacingLeft=4;spacingRight=4;overflow=hidden;points=[[0,0.5],[1,0.5]];portConstraint=eastwest;rotatable=0;whiteSpace=wrap;html=1;labelBackgroundColor=none;fontColor=#393C56;" parent="CGOxmBdp1kWUepC8ob1Y-143" vertex="1">
          <mxGeometry y="30" width="140" height="30" as="geometry" />
        </mxCell>
        <mxCell id="CGOxmBdp1kWUepC8ob1Y-145" value="contenu" style="text;strokeColor=none;fillColor=none;align=left;verticalAlign=middle;spacingLeft=4;spacingRight=4;overflow=hidden;points=[[0,0.5],[1,0.5]];portConstraint=eastwest;rotatable=0;whiteSpace=wrap;html=1;labelBackgroundColor=none;fontColor=#393C56;" parent="CGOxmBdp1kWUepC8ob1Y-143" vertex="1">
          <mxGeometry y="60" width="140" height="30" as="geometry" />
        </mxCell>
        <mxCell id="CGOxmBdp1kWUepC8ob1Y-146" value="date_heure_reponse" style="text;strokeColor=none;fillColor=none;align=left;verticalAlign=middle;spacingLeft=4;spacingRight=4;overflow=hidden;points=[[0,0.5],[1,0.5]];portConstraint=eastwest;rotatable=0;whiteSpace=wrap;html=1;labelBackgroundColor=none;fontColor=#393C56;" parent="CGOxmBdp1kWUepC8ob1Y-143" vertex="1">
          <mxGeometry y="90" width="140" height="30" as="geometry" />
        </mxCell>
        <mxCell id="CGOxmBdp1kWUepC8ob1Y-157" value="" style="endArrow=none;html=1;rounded=0;exitX=1.029;exitY=0.027;exitDx=0;exitDy=0;exitPerimeter=0;entryX=0.017;entryY=0;entryDx=0;entryDy=0;entryPerimeter=0;labelBackgroundColor=none;strokeColor=#E07A5F;fontColor=default;" parent="I36MxHCAxnk4FtEMSTyt-2" source="CGOxmBdp1kWUepC8ob1Y-139" target="CGOxmBdp1kWUepC8ob1Y-145" edge="1">
          <mxGeometry relative="1" as="geometry">
            <mxPoint x="1000" y="670" as="sourcePoint" />
            <mxPoint x="1160" y="670" as="targetPoint" />
          </mxGeometry>
        </mxCell>
        <mxCell id="CGOxmBdp1kWUepC8ob1Y-158" value="Lier" style="swimlane;childLayout=stackLayout;horizontal=1;startSize=30;horizontalStack=0;rounded=1;fontSize=14;fontStyle=0;strokeWidth=2;resizeParent=0;resizeLast=1;shadow=0;dashed=0;align=center;arcSize=13;whiteSpace=wrap;html=1;movable=1;resizable=1;rotatable=1;deletable=1;editable=1;locked=0;connectable=1;labelBackgroundColor=none;fillColor=#F2CC8F;strokeColor=#E07A5F;fontColor=#393C56;" parent="I36MxHCAxnk4FtEMSTyt-2" vertex="1">
          <mxGeometry x="990" y="640" width="110" height="50" as="geometry" />
        </mxCell>
        <mxCell id="CGOxmBdp1kWUepC8ob1Y-159" value="1,1" style="text;html=1;align=center;verticalAlign=middle;resizable=0;points=[];autosize=1;strokeColor=none;fillColor=none;labelBackgroundColor=none;fontColor=#393C56;" parent="I36MxHCAxnk4FtEMSTyt-2" vertex="1">
          <mxGeometry x="1130" y="640" width="40" height="30" as="geometry" />
        </mxCell>
        <mxCell id="CGOxmBdp1kWUepC8ob1Y-160" value="0,n" style="text;html=1;align=center;verticalAlign=middle;resizable=0;points=[];autosize=1;strokeColor=none;fillColor=none;labelBackgroundColor=none;fontColor=#393C56;" parent="I36MxHCAxnk4FtEMSTyt-2" vertex="1">
          <mxGeometry x="920" y="640" width="40" height="30" as="geometry" />
        </mxCell>
        <mxCell id="CGOxmBdp1kWUepC8ob1Y-161" value="" style="endArrow=none;html=1;rounded=0;labelBackgroundColor=none;strokeColor=#E07A5F;fontColor=default;" parent="I36MxHCAxnk4FtEMSTyt-2" edge="1">
          <mxGeometry relative="1" as="geometry">
            <mxPoint x="695" y="449" as="sourcePoint" />
            <mxPoint x="830" y="449" as="targetPoint" />
          </mxGeometry>
        </mxCell>
        <mxCell id="CGOxmBdp1kWUepC8ob1Y-162" value="" style="endArrow=none;html=1;rounded=0;exitX=0.451;exitY=-0.005;exitDx=0;exitDy=0;exitPerimeter=0;labelBackgroundColor=none;strokeColor=#E07A5F;fontColor=default;" parent="I36MxHCAxnk4FtEMSTyt-2" source="CGOxmBdp1kWUepC8ob1Y-137" edge="1">
          <mxGeometry relative="1" as="geometry">
            <mxPoint x="830" y="590" as="sourcePoint" />
            <mxPoint x="830" y="450" as="targetPoint" />
          </mxGeometry>
        </mxCell>
        <mxCell id="CGOxmBdp1kWUepC8ob1Y-163" value="Interagir" style="swimlane;childLayout=stackLayout;horizontal=1;startSize=30;horizontalStack=0;rounded=1;fontSize=14;fontStyle=0;strokeWidth=2;resizeParent=0;resizeLast=1;shadow=0;dashed=0;align=center;arcSize=13;whiteSpace=wrap;html=1;movable=1;resizable=1;rotatable=1;deletable=1;editable=1;locked=0;connectable=1;labelBackgroundColor=none;fillColor=#F2CC8F;strokeColor=#E07A5F;fontColor=#393C56;" parent="I36MxHCAxnk4FtEMSTyt-2" vertex="1">
          <mxGeometry x="780" y="500" width="110" height="50" as="geometry" />
        </mxCell>
        <mxCell id="CGOxmBdp1kWUepC8ob1Y-164" value="1,n" style="text;html=1;align=center;verticalAlign=middle;resizable=0;points=[];autosize=1;strokeColor=none;fillColor=none;labelBackgroundColor=none;fontColor=#393C56;" parent="I36MxHCAxnk4FtEMSTyt-2" vertex="1">
          <mxGeometry x="790" y="580" width="40" height="30" as="geometry" />
        </mxCell>
        <mxCell id="CGOxmBdp1kWUepC8ob1Y-165" value="0,n" style="text;html=1;align=center;verticalAlign=middle;resizable=0;points=[];autosize=1;strokeColor=none;fillColor=none;labelBackgroundColor=none;fontColor=#393C56;" parent="I36MxHCAxnk4FtEMSTyt-2" vertex="1">
          <mxGeometry x="700" y="450" width="40" height="30" as="geometry" />
        </mxCell>
        <mxCell id="HE1txntKKnnB9kRg70EI-4" style="edgeStyle=orthogonalEdgeStyle;rounded=0;orthogonalLoop=1;jettySize=auto;html=1;exitX=1;exitY=0.5;exitDx=0;exitDy=0;labelBackgroundColor=none;strokeColor=#E07A5F;fontColor=default;" parent="I36MxHCAxnk4FtEMSTyt-2" source="HE1txntKKnnB9kRg70EI-2" target="CGOxmBdp1kWUepC8ob1Y-123" edge="1">
          <mxGeometry relative="1" as="geometry" />
        </mxCell>
        <mxCell id="HE1txntKKnnB9kRg70EI-2" value="gérer" style="swimlane;childLayout=stackLayout;horizontal=1;startSize=30;horizontalStack=0;rounded=1;fontSize=14;fontStyle=0;strokeWidth=2;resizeParent=0;resizeLast=1;shadow=0;dashed=0;align=center;arcSize=13;whiteSpace=wrap;html=1;movable=1;resizable=1;rotatable=1;deletable=1;editable=1;locked=0;connectable=1;labelBackgroundColor=none;fillColor=#F2CC8F;strokeColor=#E07A5F;fontColor=#393C56;" parent="I36MxHCAxnk4FtEMSTyt-2" vertex="1">
          <mxGeometry x="845" y="95" width="110" height="50" as="geometry" />
        </mxCell>
        <mxCell id="HE1txntKKnnB9kRg70EI-5" value="0,n" style="text;html=1;align=center;verticalAlign=middle;resizable=0;points=[];autosize=1;strokeColor=none;fillColor=none;labelBackgroundColor=none;fontColor=#393C56;" parent="I36MxHCAxnk4FtEMSTyt-2" vertex="1">
          <mxGeometry x="740" y="130" width="40" height="30" as="geometry" />
        </mxCell>
        <mxCell id="HE1txntKKnnB9kRg70EI-6" value="0,n" style="text;html=1;align=center;verticalAlign=middle;resizable=0;points=[];autosize=1;strokeColor=none;fillColor=none;labelBackgroundColor=none;fontColor=#393C56;" parent="I36MxHCAxnk4FtEMSTyt-2" vertex="1">
          <mxGeometry x="990" y="130" width="40" height="30" as="geometry" />
        </mxCell>
        <mxCell id="HE1txntKKnnB9kRg70EI-11" style="edgeStyle=orthogonalEdgeStyle;rounded=0;orthogonalLoop=1;jettySize=auto;html=1;exitX=0.5;exitY=0;exitDx=0;exitDy=0;labelBackgroundColor=none;strokeColor=#E07A5F;fontColor=default;" parent="I36MxHCAxnk4FtEMSTyt-2" source="HE1txntKKnnB9kRg70EI-9" target="CGOxmBdp1kWUepC8ob1Y-116" edge="1">
          <mxGeometry relative="1" as="geometry" />
        </mxCell>
        <mxCell id="HE1txntKKnnB9kRg70EI-9" value="Créer" style="swimlane;childLayout=stackLayout;horizontal=1;startSize=30;horizontalStack=0;rounded=1;fontSize=14;fontStyle=0;strokeWidth=2;resizeParent=0;resizeLast=1;shadow=0;dashed=0;align=center;arcSize=13;whiteSpace=wrap;html=1;movable=1;resizable=1;rotatable=1;deletable=1;editable=1;locked=0;connectable=1;labelBackgroundColor=none;fillColor=#F2CC8F;strokeColor=#E07A5F;fontColor=#393C56;" parent="I36MxHCAxnk4FtEMSTyt-2" vertex="1">
          <mxGeometry y="540" width="110" height="50" as="geometry" />
        </mxCell>
        <mxCell id="HE1txntKKnnB9kRg70EI-10" style="edgeStyle=orthogonalEdgeStyle;rounded=0;orthogonalLoop=1;jettySize=auto;html=1;exitX=0;exitY=0.5;exitDx=0;exitDy=0;entryX=0.5;entryY=1;entryDx=0;entryDy=0;labelBackgroundColor=none;strokeColor=#E07A5F;fontColor=default;" parent="I36MxHCAxnk4FtEMSTyt-2" source="CGOxmBdp1kWUepC8ob1Y-91" target="HE1txntKKnnB9kRg70EI-9" edge="1">
          <mxGeometry relative="1" as="geometry" />
        </mxCell>
        <mxCell id="HE1txntKKnnB9kRg70EI-12" style="edgeStyle=orthogonalEdgeStyle;rounded=0;orthogonalLoop=1;jettySize=auto;html=1;exitX=0;exitY=0;exitDx=0;exitDy=0;endArrow=block;endFill=0;labelBackgroundColor=none;strokeColor=#E07A5F;fontColor=default;" parent="I36MxHCAxnk4FtEMSTyt-2" edge="1">
          <mxGeometry relative="1" as="geometry">
            <mxPoint x="940" y="317.97" as="sourcePoint" />
            <mxPoint x="700" y="327.97" as="targetPoint" />
            <Array as="points">
              <mxPoint x="910" y="318.51" />
              <mxPoint x="910" y="328.51" />
            </Array>
          </mxGeometry>
        </mxCell>
      </root>
    </mxGraphModel>
  </diagram>
</mxfile>
